REM DIRINDEX 1\2,1\3,1\4,1\5
REM DIRNAME folder01,folder02,folder03,folder04,folder05
TITLE ""
FILE "1Q_t_1669-1678.mp3" MP3
  TRACK 01 AUDIO
    TITLE "3:cjc004_5914"
    INDEX 01 00:00:00
  TRACK 02 AUDIO
    TITLE "0:"
    INDEX 01 00:01:05
  TRACK 03 AUDIO
    TITLE "4:cjc004_5915"
    INDEX 01 00:01:34
  TRACK 04 AUDIO
    TITLE "0:"
    INDEX 01 00:02:45
  TRACK 05 AUDIO
    TITLE "5:cjc004_5916"
    INDEX 01 00:02:69
  TRACK 06 AUDIO
    TITLE "0:"
    INDEX 01 00:06:53
  TRACK 07 AUDIO
    TITLE "3:cjc004_5917"
    INDEX 01 00:07:31
  TRACK 08 AUDIO
    TITLE "0:"
    INDEX 01 00:08:56
  TRACK 09 AUDIO
    TITLE "4:cjc004_5918"
    INDEX 01 00:09:06
  TRACK 10 AUDIO
    TITLE "0:"
    INDEX 01 00:10:25
  TRACK 11 AUDIO
    TITLE "5:cjc004_5919"
    INDEX 01 00:10:49
  TRACK 12 AUDIO
    TITLE "0:"
    INDEX 01 00:14:68
  TRACK 13 AUDIO
    TITLE "3:cjc004_5920"
    INDEX 01 00:15:46
  TRACK 14 AUDIO
    TITLE "0:"
    INDEX 01 00:16:59
  TRACK 15 AUDIO
    TITLE "4:cjc004_5921"
    INDEX 01 00:17:14
  TRACK 16 AUDIO
    TITLE "0:"
    INDEX 01 00:18:23
  TRACK 17 AUDIO
    TITLE "5:cjc004_5922"
    INDEX 01 00:18:44
  TRACK 18 AUDIO
    TITLE "0:"
    INDEX 01 00:24:71
  TRACK 19 AUDIO
    TITLE "3:cjc004_5923"
    INDEX 01 00:25:48
  TRACK 20 AUDIO
    TITLE "0:"
    INDEX 01 00:26:50
  TRACK 21 AUDIO
    TITLE "4:cjc004_5924"
    INDEX 01 00:27:02
  TRACK 22 AUDIO
    TITLE "0:"
    INDEX 01 00:28:12
  TRACK 23 AUDIO
    TITLE "5:cjc004_5925"
    INDEX 01 00:28:37
  TRACK 24 AUDIO
    TITLE "0:"
    INDEX 01 00:32:29
  TRACK 25 AUDIO
    TITLE "3:cjc004_5926"
    INDEX 01 00:33:07
  TRACK 26 AUDIO
    TITLE "0:"
    INDEX 01 00:34:26
  TRACK 27 AUDIO
    TITLE "4:cjc004_5927"
    INDEX 01 00:34:59
  TRACK 28 AUDIO
    TITLE "0:"
    INDEX 01 00:36:25
  TRACK 29 AUDIO
    TITLE "5:cjc004_5928"
    INDEX 01 00:36:48
  TRACK 30 AUDIO
    TITLE "0:"
    INDEX 01 00:41:59
  TRACK 31 AUDIO
    TITLE "3:cjc004_5929"
    INDEX 01 00:42:35
  TRACK 32 AUDIO
    TITLE "0:"
    INDEX 01 00:43:56
  TRACK 33 AUDIO
    TITLE "4:cjc004_5930"
    INDEX 01 00:44:11
  TRACK 34 AUDIO
    TITLE "0:"
    INDEX 01 00:45:14
  TRACK 35 AUDIO
    TITLE "5:cjc004_5931"
    INDEX 01 00:45:33
  TRACK 36 AUDIO
    TITLE "0:"
    INDEX 01 00:50:62
  TRACK 37 AUDIO
    TITLE "3:cjc004_5932"
    INDEX 01 00:51:38
  TRACK 38 AUDIO
    TITLE "0:"
    INDEX 01 00:52:43
  TRACK 39 AUDIO
    TITLE "4:cjc004_5933"
    INDEX 01 00:52:69
  TRACK 40 AUDIO
    TITLE "0:"
    INDEX 01 00:54:34
  TRACK 41 AUDIO
    TITLE "5:cjc004_5934"
    INDEX 01 00:54:62
  TRACK 42 AUDIO
    TITLE "0:"
    INDEX 01 00:58:38
  TRACK 43 AUDIO
    TITLE "3:cjc004_5935"
    INDEX 01 00:59:20
  TRACK 44 AUDIO
    TITLE "0:"
    INDEX 01 01:00:25
  TRACK 45 AUDIO
    TITLE "4:cjc004_5936"
    INDEX 01 01:00:53
  TRACK 46 AUDIO
    TITLE "0:"
    INDEX 01 01:01:74
  TRACK 47 AUDIO
    TITLE "5:cjc004_5937"
    INDEX 01 01:02:24
  TRACK 48 AUDIO
    TITLE "0:"
    INDEX 01 01:06:71
  TRACK 49 AUDIO
    TITLE "3:cjc004_5938"
    INDEX 01 01:07:47
  TRACK 50 AUDIO
    TITLE "0:"
    INDEX 01 01:08:56
  TRACK 51 AUDIO
    TITLE "4:cjc004_5939"
    INDEX 01 01:09:07
  TRACK 52 AUDIO
    TITLE "0:"
    INDEX 01 01:10:04
  TRACK 53 AUDIO
    TITLE "5:cjc004_5940"
    INDEX 01 01:10:30
  TRACK 54 AUDIO
    TITLE "0:"
    INDEX 01 01:15:11
  TRACK 55 AUDIO
    TITLE "3:cjc004_5941"
    INDEX 01 01:15:62
  TRACK 56 AUDIO
    TITLE "0:"
    INDEX 01 01:17:08
  TRACK 57 AUDIO
    TITLE "4:cjc004_5942"
    INDEX 01 01:17:33
  TRACK 58 AUDIO
    TITLE "0:"
    INDEX 01 01:18:35
  TRACK 59 AUDIO
    TITLE "5:cjc004_5943"
    INDEX 01 01:18:56
  TRACK 60 AUDIO
    TITLE "0:"
    INDEX 01 01:23:05
